<svg width="255" height="62" viewBox="0 0 255 62" fill="none" xmlns="http://www.w3.org/2000/svg">
<g id="ExecutivePros Logo">
<g id="Group">
<path id="Vector" d="M0.280029 43.5176V17.6969H17.6399V22.9867H6.29755V27.8381H17.0204V32.8357H6.29755V38.1956H18.2975V43.5205H0.280029V43.5176Z" fill="black"/>
<path id="Vector_2" d="M76.5438 36.0767H63.3777C63.5589 38.0816 65.5667 39.5049 67.7177 39.5049C69.6144 39.5049 70.9267 38.7012 71.7304 37.6081L75.8891 40.2326C74.1736 42.7138 71.33 44.0991 67.6476 44.0991C62.1766 44.0991 57.6554 40.633 57.6554 34.5073C57.6554 28.5629 61.9603 24.7694 67.4664 24.7694C72.8263 24.7694 76.5847 28.4518 76.5847 34.6534C76.5789 35.1298 76.5789 35.6384 76.5438 36.0767ZM71.0728 32.3563C71.0728 30.4596 69.8687 28.8902 67.4985 28.8902C65.2014 28.8902 63.5239 30.4947 63.3777 32.3563H71.0728Z" fill="black"/>
<path id="Vector_3" d="M92.8077 31.2253C92.1502 30.3515 90.8379 29.767 89.6339 29.767C87.1175 29.767 85.44 31.9179 85.44 34.4343C85.44 36.9506 87.0825 39.0665 89.7069 39.0665C90.911 39.0665 92.2232 38.593 92.9539 37.7163L96.2739 41.764C94.7775 43.2224 92.2262 44.0991 89.5637 44.0991C83.8385 44.0991 79.3874 40.4518 79.3874 34.4343C79.3874 28.5249 83.8735 24.7694 89.5257 24.7694C92.1151 24.7694 94.8506 25.7543 96.2739 27.2127L92.8077 31.2253Z" fill="black"/>
<path id="Vector_4" d="M110.606 43.5175V41.0012H110.533C109.694 42.6057 107.616 44.0289 105.062 44.0289C100.175 44.0289 98.4599 40.2355 98.4599 36.5881V25.3539H104.477V35.1999C104.477 37.2428 104.989 39.0665 107.175 39.0665C109.253 39.0665 110.384 37.2428 110.384 35.1649V25.3539H116.366V43.5175H110.606Z" fill="black"/>
<path id="Vector_5" d="M127.53 29.84V36.7694C127.53 38.4469 128.077 39.3237 129.793 39.3237C130.377 39.3237 131.105 39.2155 131.543 39.0314L131.616 43.4094C130.813 43.7017 129.427 43.9559 128.15 43.9559C123.299 43.9559 121.694 41.3665 121.694 37.5V29.84H118.777V25.3539H121.659V20.5756H127.53V25.3539H131.797V29.84H127.53Z" fill="black"/>
<path id="Vector_6" d="M137.669 22.8376C135.737 22.8376 134.241 21.3413 134.241 19.5556C134.241 17.805 135.737 16.2736 137.669 16.2736C139.565 16.2736 141.097 17.7319 141.097 19.5556C141.097 21.4143 139.565 22.8376 137.669 22.8376ZM134.679 43.5175V25.3539H140.661V43.5175H134.679Z" fill="black"/>
<path id="Vector_7" d="M156.633 43.5175H150.177L143.029 25.3539H149.631L153.459 37.1347H153.567L157.396 25.3539H163.779L156.633 43.5175Z" fill="black"/>
<path id="Vector_8" d="M184.061 36.0767H170.895C171.076 38.0816 173.084 39.5049 175.235 39.5049C177.132 39.5049 178.444 38.7012 179.248 37.6081L183.407 40.2326C181.691 42.7138 178.847 44.0991 175.165 44.0991C169.694 44.0991 165.173 40.633 165.173 34.5073C165.173 28.5629 169.478 24.7694 174.984 24.7694C180.347 24.7694 184.102 28.4518 184.102 34.6534C184.096 35.1298 184.096 35.6384 184.061 36.0767ZM178.59 32.3563C178.59 30.4596 177.386 28.8902 175.016 28.8902C172.719 28.8902 171.041 30.4947 170.895 32.3563H178.59Z" fill="black"/>
<path id="Vector_9" d="M191.502 17.6969H198.396C203.429 17.6969 206.349 20.032 206.349 23.8985C206.349 28.9692 202.301 31.5205 196.538 31.5205H191.651L189.535 43.5205H186.946L191.502 17.6969ZM192.011 29.3666H196.751C201.091 29.3666 203.718 27.5809 203.718 24.1879C203.718 21.014 201.567 19.921 198.174 19.921H193.691L192.011 29.3666Z" fill="black" stroke="black" stroke-width="0.77915" stroke-miterlimit="10"/>
<path id="Vector_10" d="M209.081 26.4499H211.416C211.308 27.3617 211.162 28.6388 211.016 29.3666H211.089C212.328 27.3968 214.371 26.0115 216.779 26.0115C217.399 26.0115 217.872 26.0465 218.384 26.1927L217.799 28.5278C217.545 28.4196 216.779 28.3086 216.122 28.3086C213.494 28.3086 210.978 30.2053 210.177 34.7645L208.646 43.5175H206.202L208.538 30.2053C208.716 29.2935 208.973 27.616 209.081 26.4499Z" fill="black" stroke="black" stroke-width="0.77915" stroke-miterlimit="10"/>
<path id="Vector_11" d="M218.381 36.5502C218.381 30.8249 222.613 26.0085 228.519 26.0085C233.151 26.0085 236.398 28.9983 236.398 33.3763C236.398 39.2126 232.204 43.953 226.26 43.953C221.663 43.9559 218.381 40.9281 218.381 36.5502ZM228.376 28.0543C224.109 28.0543 220.973 31.9208 220.973 36.407C220.973 39.5428 223.016 41.878 226.406 41.878C230.746 41.878 233.847 38.0494 233.847 33.5253C233.844 30.4245 231.804 28.0543 228.376 28.0543Z" fill="black" stroke="black" stroke-width="0.77915" stroke-miterlimit="10"/>
<path id="Vector_12" d="M251.788 30.2053C251.131 28.9282 249.71 28.0543 247.814 28.0543C246.063 28.0543 243.766 28.785 243.766 30.8249C243.766 32.6486 245.043 33.087 247.159 33.7065C250.479 34.6534 252.303 36.0037 252.303 38.7041C252.303 42.4245 248.693 43.9559 245.701 43.9559C242.854 43.9559 240.156 42.8979 238.733 40.709L240.849 39.3237C241.653 40.709 243.439 41.878 245.59 41.878C247.705 41.878 249.856 41.0392 249.856 38.9613C249.856 37.1376 248.398 36.407 245.698 35.5331C243.655 34.8756 241.393 33.8556 241.393 31.012C241.393 27.5107 244.894 26.0144 247.957 26.0144C250.584 26.0144 252.808 27.1454 253.72 28.823L251.788 30.2053Z" fill="black" stroke="black" stroke-width="0.77915" stroke-miterlimit="10"/>
</g>
<g id="Group_2">
<path id="Vector_13" d="M41.7772 21.0841V42.0651C41.7772 43.7309 42.6656 44.9292 44.7728 46.104C47.5667 47.6617 57.8395 50.9204 61.5511 52.0982C63.7313 52.7908 65.4118 50.7976 62.8692 47.9043C60.7533 45.4932 51.4187 35.1971 46.6374 30.0855C44.2555 27.5371 41.7772 25.4299 41.7772 21.0841Z" fill="url(#paint0_linear_1196_2781)"/>
<path id="Vector_14" d="M41.7772 30.3632V42.065C41.7772 43.7309 42.6656 44.9291 44.7728 46.104C47.5667 47.6617 57.8395 50.9203 61.5511 52.0981C62.9802 52.5511 64.1931 51.8526 64.1463 50.5053C63.8541 52.4897 61.4254 51.1512 59.5375 49.7396C56.5273 47.4893 52.0616 43.7484 46.6374 39.3646C43.9253 37.1727 41.7772 34.7119 41.7772 30.3632Z" fill="url(#paint1_linear_1196_2781)"/>
<path id="Vector_15" d="M41.7772 42.065V21.0841C41.7772 18.8834 42.9871 16.2326 46.4737 14.2775C51.4274 11.4981 62.8984 4.87271 69.3923 1.63746C73.9895 -0.65382 75.7021 0.994495 71.6017 5.61796C68.6441 8.95258 54.2331 25.0324 47.8093 32.4177C45.3369 35.2584 42.2799 38.0728 41.7772 42.065Z" fill="url(#paint2_linear_1196_2781)"/>
<path id="Vector_16" d="M38.9336 20.105V41.0859C38.9336 43.2866 37.7236 45.9344 34.237 47.8925C29.2833 50.6719 17.8123 57.2973 11.3185 60.5325C6.7213 62.8238 5.00869 61.1755 9.10902 56.552C12.0666 53.2174 26.4777 37.1376 32.9014 29.7523C35.3768 26.9116 38.4338 24.0972 38.9336 20.105Z" fill="url(#paint3_linear_1196_2781)"/>
<path id="Vector_17" d="M38.9336 41.0859V20.105C38.9336 18.4391 38.0451 17.2409 35.9379 16.066C33.144 14.5083 22.8713 11.2497 19.1626 10.0719C16.9823 9.37926 15.3019 11.3724 17.8445 14.2658C19.9604 16.6769 29.295 26.973 34.0763 32.0845C36.4582 34.633 38.9336 36.7372 38.9336 41.0859Z" fill="url(#paint4_linear_1196_2781)"/>
<path id="Vector_18" d="M38.9336 31.8069V20.105C38.9336 18.4392 38.0451 17.241 35.938 16.0661C33.144 14.5084 22.8713 11.2497 19.1626 10.072C17.7334 9.61896 16.5206 10.3175 16.5673 11.6647C16.8596 9.68034 19.2882 11.0189 21.1762 12.4305C24.1864 14.6808 28.6521 18.4217 34.0763 22.8055C36.7884 24.9974 38.9336 27.4582 38.9336 31.8069Z" fill="url(#paint5_linear_1196_2781)"/>
<path id="Vector_19" d="M41.7772 32.3738V21.084C41.7772 18.8834 42.9871 16.2326 46.4737 14.2774C51.4274 11.4981 62.8984 4.87268 69.3923 1.63742C72.5779 0.050478 74.3782 0.354419 73.82 2.22777C73.9778 0.798646 72.5837 1.09675 71.3183 2.09041C67.7264 4.91067 54.3675 15.1045 47.2891 21.3383C42.9345 25.1727 42.2799 28.3816 41.7772 32.3738Z" fill="url(#paint6_linear_1196_2781)"/>
<path id="Vector_20" d="M38.9365 20.105V41.0859C38.9365 43.2866 37.7266 45.9374 34.24 47.8925C29.2863 50.6719 17.8153 57.2973 11.3214 60.5325C6.72423 62.8238 5.01162 61.1755 9.11194 56.552C12.0696 53.2174 26.4806 37.1376 32.9044 29.7523C35.3768 26.9116 38.4338 24.0972 38.9365 20.105Z" fill="url(#paint7_linear_1196_2781)"/>
<path id="Vector_21" d="M38.9365 28.0164V41.086C38.9365 43.2867 37.7266 45.9374 34.24 47.8926C29.2863 50.6719 17.8153 57.2973 11.3214 60.5326C8.13581 62.1195 6.33552 61.8156 6.89373 59.9422C6.73591 61.3714 8.12997 61.0733 9.39543 60.0796C12.9872 57.2593 27.8893 45.5166 34.9122 39.2214C37.7178 36.7051 38.9365 32.9964 38.9365 28.0164Z" fill="url(#paint8_linear_1196_2781)"/>
</g>
</g>
<defs>
<linearGradient id="paint0_linear_1196_2781" x1="67.3524" y1="53.2484" x2="37.6066" y2="28.8654" gradientUnits="userSpaceOnUse">
<stop stop-color="#FCE152"/>
<stop offset="0.0608" stop-color="#FBDC58"/>
<stop offset="0.1446" stop-color="#F9D166"/>
<stop offset="0.2419" stop-color="#F6BD75"/>
<stop offset="0.3492" stop-color="#F3A082"/>
<stop offset="0.4648" stop-color="#EF7B8C"/>
<stop offset="0.5857" stop-color="#EC3F8F"/>
<stop offset="0.6128" stop-color="#EC278F"/>
<stop offset="0.6582" stop-color="#DF3091"/>
<stop offset="0.8915" stop-color="#AC4B9B"/>
<stop offset="1" stop-color="#98519F"/>
</linearGradient>
<linearGradient id="paint1_linear_1196_2781" x1="64.2809" y1="55.3945" x2="39.003" y2="34.6739" gradientUnits="userSpaceOnUse">
<stop stop-color="#FDDA32"/>
<stop offset="0.0631" stop-color="#FBD33D"/>
<stop offset="0.1753" stop-color="#F8BE54"/>
<stop offset="0.3237" stop-color="#F39B68"/>
<stop offset="0.5003" stop-color="#EF6B73"/>
<stop offset="0.6522" stop-color="#EC1D74"/>
<stop offset="0.79" stop-color="#C43C84"/>
<stop offset="1" stop-color="#8153A0"/>
</linearGradient>
<linearGradient id="paint2_linear_1196_2781" x1="39.6711" y1="39.6419" x2="62.033" y2="-14.2702" gradientUnits="userSpaceOnUse">
<stop stop-color="#FDDA32"/>
<stop offset="0.059" stop-color="#FBD33D"/>
<stop offset="0.1639" stop-color="#F8BE54"/>
<stop offset="0.3027" stop-color="#F39B68"/>
<stop offset="0.4678" stop-color="#EF6B73"/>
<stop offset="0.6099" stop-color="#EC1D74"/>
<stop offset="0.7645" stop-color="#C43C84"/>
<stop offset="1" stop-color="#8153A0"/>
</linearGradient>
<linearGradient id="paint3_linear_1196_2781" x1="41.8586" y1="21.2323" x2="22.6769" y2="67.4774" gradientUnits="userSpaceOnUse">
<stop stop-color="#8153A0"/>
<stop offset="0.2594" stop-color="#C43C84"/>
<stop offset="0.4297" stop-color="#EC1D74"/>
<stop offset="0.7108" stop-color="#F2926B"/>
<stop offset="0.9091" stop-color="#F9C64C"/>
<stop offset="1" stop-color="#FDDA32"/>
</linearGradient>
<linearGradient id="paint4_linear_1196_2781" x1="15.4854" y1="10.6463" x2="40.4473" y2="31.1078" gradientUnits="userSpaceOnUse">
<stop stop-color="#8153A0"/>
<stop offset="0.6555" stop-color="#55A0D8"/>
<stop offset="1" stop-color="#87D3EA"/>
</linearGradient>
<linearGradient id="paint5_linear_1196_2781" x1="17.899" y1="7.96577" x2="43.1769" y2="28.6864" gradientUnits="userSpaceOnUse">
<stop stop-color="#A4519F"/>
<stop offset="0.5496" stop-color="#60A6DB"/>
<stop offset="1" stop-color="#90D5E1"/>
</linearGradient>
<linearGradient id="paint6_linear_1196_2781" x1="39.3294" y1="29.0557" x2="77.0944" y2="-9.29636" gradientUnits="userSpaceOnUse">
<stop stop-color="#FCE152"/>
<stop offset="0.0535" stop-color="#FBDC58"/>
<stop offset="0.1272" stop-color="#F9D166"/>
<stop offset="0.2127" stop-color="#F6BD75"/>
<stop offset="0.3071" stop-color="#F3A082"/>
<stop offset="0.4088" stop-color="#EF7B8C"/>
<stop offset="0.515" stop-color="#EC3F8F"/>
<stop offset="0.5389" stop-color="#EC278F"/>
<stop offset="0.593" stop-color="#DF3091"/>
<stop offset="0.8708" stop-color="#AC4B9B"/>
<stop offset="1" stop-color="#98519F"/>
</linearGradient>
<linearGradient id="paint7_linear_1196_2781" x1="44.2687" y1="23.5138" x2="4.71639" y2="75.0141" gradientUnits="userSpaceOnUse">
<stop stop-color="#A4519F"/>
<stop offset="0.5496" stop-color="#60A6DB"/>
<stop offset="1" stop-color="#90D5E1"/>
</linearGradient>
<linearGradient id="paint8_linear_1196_2781" x1="42.2595" y1="32.2241" x2="6.97794" y2="68.0541" gradientUnits="userSpaceOnUse">
<stop stop-color="#8153A0"/>
<stop offset="0.6555" stop-color="#55A0D8"/>
<stop offset="1" stop-color="#87D3EA"/>
</linearGradient>
</defs>
</svg>
